<?xml version="1.0" standalone="no"?>
<!DOCTYPE svg PUBLIC "-//W3C//DTD SVG 20010904//EN"
 "http://www.w3.org/TR/2001/REC-SVG-20010904/DTD/svg10.dtd">
<svg version="1.0" xmlns="http://www.w3.org/2000/svg"
 width="577.000000pt" height="433.000000pt" viewBox="0 0 577.000000 433.000000"
 preserveAspectRatio="xMidYMid meet">

<g transform="translate(0.000000,433.000000) scale(0.100000,-0.100000)"
fill="#000000" stroke="none">
<path d="M3446 1671 c-16 -16 -25 -34 -22 -39 4 -6 1 -14 -5 -18 -8 -4 -9 -3
-5 4 13 21 0 13 -40 -25 -21 -20 -38 -40 -36 -45 1 -4 -5 -8 -13 -8 -7 0 -18
-6 -22 -12 -4 -7 -25 -21 -46 -31 -24 -10 -35 -22 -31 -29 4 -6 3 -8 -4 -4 -6
3 -26 -3 -44 -14 -18 -11 -41 -20 -51 -20 -10 0 -16 -4 -13 -8 2 -4 -3 -8 -12
-9 -9 -1 -35 -8 -58 -16 -23 -9 -54 -18 -70 -21 -16 -2 -31 -5 -34 -6 -3 -1
-8 -2 -12 -1 -3 0 -12 -32 -18 -72 -14 -81 -8 -319 8 -325 5 -1 7 -12 4 -24
-4 -16 -2 -19 8 -13 10 6 12 4 6 -10 -8 -21 31 -145 45 -145 5 0 9 5 9 12 0 6
3 8 6 5 4 -4 2 -12 -4 -19 -17 -21 13 -82 35 -73 14 5 15 3 7 -5 -16 -16 15
-72 35 -65 11 4 11 2 2 -9 -14 -16 -5 -23 26 -21 15 2 20 -2 16 -12 -5 -12 -7
-12 -14 -2 -4 8 -11 10 -15 6 -5 -4 5 -20 20 -35 16 -15 26 -22 23 -16 -4 6 6
10 23 10 16 0 27 -4 24 -8 -3 -5 0 -16 7 -24 9 -10 9 -18 2 -25 -8 -8 -11 -6
-10 7 1 11 -3 18 -10 17 -7 -2 -10 4 -7 12 4 8 2 15 -4 15 -5 0 -12 -6 -15
-14 -7 -19 48 -71 64 -60 9 5 10 2 6 -10 -5 -13 -3 -15 12 -7 18 10 31 6 31
-11 0 -4 -5 -8 -11 -8 -5 0 -7 6 -3 13 6 9 4 9 -6 0 -15 -14 -14 -16 66 -73
32 -23 44 -26 54 -17 8 7 11 8 7 1 -9 -15 29 -48 44 -38 7 4 10 3 6 -3 -7 -11
90 -60 100 -50 3 4 14 0 23 -8 21 -19 145 -51 235 -60 81 -8 244 8 325 32 125
36 243 89 268 122 7 9 15 14 17 11 7 -9 106 71 100 81 -4 5 -3 8 2 7 15 -5 82
63 76 79 -3 8 -12 12 -22 8 -12 -5 -13 -4 -4 6 10 10 16 9 29 -2 14 -11 18
-11 30 6 8 10 14 25 14 33 0 7 4 11 8 8 4 -2 14 4 21 16 7 11 8 17 2 14 -5 -4
-13 -1 -17 5 -4 7 -3 9 3 6 5 -4 19 4 31 17 15 18 17 27 9 36 -9 10 -8 12 5 7
20 -7 43 26 34 49 -3 8 -2 13 3 10 5 -3 11 3 14 14 6 22 -3 26 -20 9 -6 -6
-46 -29 -89 -50 -44 -22 -70 -38 -58 -35 14 4 21 2 21 -8 0 -11 -7 -12 -31 -5
-22 6 -47 4 -86 -8 -63 -19 -355 -26 -378 -9 -26 19 -117 45 -126 35 -16 -15
-29 -10 -16 6 9 11 9 15 1 15 -6 0 -30 12 -52 26 -24 15 -51 24 -64 22 -13 -3
-22 0 -22 8 0 7 5 10 10 7 6 -4 7 -1 3 6 -5 7 -14 10 -22 7 -8 -3 -13 0 -11 7
1 7 -4 11 -10 10 -7 -2 -12 0 -11 5 2 4 -19 27 -46 52 -27 25 -46 39 -42 33 5
-9 2 -11 -8 -7 -8 3 -12 12 -9 21 4 11 2 14 -8 11 -8 -3 -13 -11 -11 -17 3
-15 -3 -14 -18 5 -11 12 -11 15 1 12 8 -2 14 5 14 17 0 11 -6 19 -13 17 -6 -1
-11 4 -10 10 2 7 -3 12 -10 10 -8 -1 -11 2 -7 8 11 19 -6 32 -23 18 -15 -12
-16 -11 -4 4 12 14 11 22 -4 47 -10 16 -21 28 -26 25 -4 -3 -5 1 -2 9 3 8 -3
23 -13 33 -10 10 -18 25 -18 33 -1 24 -28 121 -34 121 -7 0 -15 109 -15 190 0
87 8 188 15 184 4 -2 9 7 11 21 3 14 4 25 3 25 0 0 -14 -13 -29 -29z m-56 -95
c0 -3 -4 -8 -10 -11 -5 -3 -10 -1 -10 4 0 6 5 11 10 11 6 0 10 -2 10 -4z
m-203 -152 c-3 -3 -12 -4 -19 -1 -8 3 -5 6 6 6 11 1 17 -2 13 -5z m352 -406
c-5 -10 -11 -18 -12 -18 -2 0 -3 8 -3 18 0 10 6 19 13 19 8 0 9 -6 2 -19z
m164 -169 c2 -8 7 -21 12 -29 7 -12 6 -13 -7 -3 -8 7 -17 11 -19 8 -3 -2 -5 9
-4 25 0 28 14 27 18 -1z m152 -101 c4 -3 2 -9 -3 -12 -5 -3 -15 1 -21 8 -10
11 -9 14 3 12 9 -1 18 -5 21 -8z m716 -131 c-10 -9 -11 -8 -5 6 3 10 9 15 12
12 3 -3 0 -11 -7 -18z m17 -42 c-3 -3 -9 2 -12 12 -6 14 -5 15 5 6 7 -7 10
-15 7 -18z m-50 -59 c-7 -8 -15 -12 -17 -11 -5 6 10 25 20 25 5 0 4 -6 -3 -14z
m-1268 -46 c0 -5 -2 -10 -4 -10 -3 0 -8 5 -11 10 -3 6 -1 10 4 10 6 0 11 -4
11 -10z m-3 -37 c-4 -3 -1 -13 6 -22 11 -14 10 -14 -5 -2 -16 12 -16 31 -1 31
4 0 3 -3 0 -7z m1144 -16 c-10 -9 -11 -8 -5 6 3 10 9 15 12 12 3 -3 0 -11 -7
-18z m-221 -102 c0 -2 -6 -5 -13 -8 -8 -3 -14 1 -14 8 0 7 6 11 14 8 7 -3 13
-6 13 -8z m64 -3 c3 -5 -1 -9 -9 -9 -8 0 -12 4 -9 9 3 4 7 8 9 8 2 0 6 -4 9
-8z"/>
</g>
</svg>
